<svg width="1024" height="1024" xmlns="http://www.w3.org/2000/svg">

 <g>
  <title>background</title>
  <rect fill="none" id="canvas_background" height="402" width="582" y="-1" x="-1"/>
 </g>
 <g>
  <title>Layer 1</title>
  <path id="svg_1" fill="#000000" d="m42.66667,938.66667c-14.93334,0 -29.86667,-8.53334 -36.26667,-21.33334c-8.53333,-12.8 -8.53333,-29.86666 0,-42.66666l469.33333,-812.8c8.53334,-12.8 21.33334,-21.33334 36.26667,-21.33334s29.86667,8.53334 36.26667,21.33334l469.33333,812.8c8.53333,12.8 8.53333,29.86666 0,42.66666c-8.53333,12.8 -21.33333,21.33334 -36.26667,21.33334l-938.66666,0zm198.4,-300.8l-123.73334,215.46666l791.46667,0l-123.73333,-215.46666c-64,81.06666 -166.4,130.13333 -273.06667,130.13333c-106.66667,0 -206.93333,-49.06667 -270.93333,-130.13333zm206.93333,-138.66667c-55.46667,12.8 -104.53333,44.8 -138.66667,87.46667c46.93334,59.73333 123.73334,96 202.66667,96s155.73333,-36.26667 202.66667,-96c-34.13334,-42.66667 -83.2,-74.66667 -138.66667,-87.46667c12.8,14.93333 21.33333,34.13333 21.33333,55.46667c0,46.93333 -38.4,85.33333 -85.33333,85.33333s-85.33333,-38.4 -85.33333,-85.33333c0,-21.33334 8.53333,-40.53334 21.33333,-55.46667zm64,-330.66667l-157.86667,275.2c49.06667,-23.46666 102.4,-38.4 157.86667,-38.4c55.46667,0 110.93333,12.8 157.86667,38.4l-157.86667,-275.2z"/>
 </g>
</svg>